HIERARCHY
ROOT Hips
{
  OFFSET 5.84602e-005 68.8428 3.50346
  CHANNELS 6 Xposition Yposition Zposition Zrotation Xrotation Yrotation
  JOINT Spine
  {
    OFFSET 0 8.597 -4.6522
    CHANNELS 3 Zrotation Xrotation Yrotation
    JOINT Spine1
    {
      OFFSET 0 7.8454 0.4098
      CHANNELS 3 Zrotation Xrotation Yrotation
      JOINT Spine2
      {
        OFFSET 0 9.7078 -2.1609
        CHANNELS 3 Zrotation Xrotation Yrotation
        JOINT Neck
        {
          OFFSET 0 21.8761 -0.4549
          CHANNELS 3 Zrotation Xrotation Yrotation
          JOINT Head
          {
            OFFSET 0 12.3537 3.3602
            CHANNELS 3 Zrotation Xrotation Yrotation
            End Site
            {
              OFFSET 0.0001 18.9506 0.5657
            }
          }
        }
        JOINT LeftShoulder
        {
          OFFSET 2.2086 21.1115 7.2329
          CHANNELS 3 Zrotation Xrotation Yrotation
          JOINT LeftArm
          {
            OFFSET 13.1193 3.0282 -4.8998
            CHANNELS 3 Zrotation Xrotation Yrotation
            JOINT LeftForeArm
            {
              OFFSET 27.4081 -0.0973053 -0.2375
              CHANNELS 3 Zrotation Xrotation Yrotation
              JOINT LeftHand
              {
                OFFSET 22.8641 0.0662994 -0.1369
                CHANNELS 3 Zrotation Xrotation Yrotation
                JOINT LeftHandIndex1
                {
                  OFFSET 8.8614 0.775009 2.4612
                  CHANNELS 3 Zrotation Xrotation Yrotation
                  JOINT LeftHandIndex2
                  {
                    OFFSET 3.3146 -0.808304 0.5841
                    CHANNELS 3 Zrotation Xrotation Yrotation
                    JOINT LeftHandIndex3
                    {
                      OFFSET 2.2628 -0.552002 0.3989
                      CHANNELS 3 Zrotation Xrotation Yrotation
                      End Site
                      {
                        OFFSET 1.6102 -0.4807 0.2612
                      }
                    }
                  }
                }
                JOINT LeftHandMiddle1
                {
                  OFFSET 8.9937 0.895004 0.2143
                  CHANNELS 3 Zrotation Xrotation Yrotation
                  JOINT LeftHandMiddle2
                  {
                    OFFSET 4.0984 0.0113983 -0.0242
                    CHANNELS 3 Zrotation Xrotation Yrotation
                    JOINT LeftHandMiddle3
                    {
                      OFFSET 2.2716 0.00689697 -0.0138001
                      CHANNELS 3 Zrotation Xrotation Yrotation
                      End Site
                      {
                        OFFSET 2.0404 -0.1441 0.0027
                      }
                    }
                  }
                }
                JOINT LeftHandRing1
                {
                  OFFSET 8.5234 0.597198 -2.0164
                  CHANNELS 3 Zrotation Xrotation Yrotation
                  JOINT LeftHandRing2
                  {
                    OFFSET 3.7188 -0.188293 -0.2328
                    CHANNELS 3 Zrotation Xrotation Yrotation
                    JOINT LeftHandRing3
                    {
                      OFFSET 2.1191 -0.106598 -0.1332
                      CHANNELS 3 Zrotation Xrotation Yrotation
                      End Site
                      {
                        OFFSET 1.8737 -0.2304 -0.0886
                      }
                    }
                  }
                }
                JOINT LeftHandPinky1
                {
                  OFFSET 7.9094 -0.601089 -3.4825
                  CHANNELS 3 Zrotation Xrotation Yrotation
                  JOINT LeftHandPinky2
                  {
                    OFFSET 2.2874 -0.477005 -0.6314
                    CHANNELS 3 Zrotation Xrotation Yrotation
                    JOINT LeftHandPinky3
                    {
                      OFFSET 1.6774 -0.349396 -0.4633
                      CHANNELS 3 Zrotation Xrotation Yrotation
                      End Site
                      {
                        OFFSET 1.4888 -0.4091 -0.3416
                      }
                    }
                  }
                }
                JOINT LeftHandThumb1
                {
                  OFFSET 1.833 -1.3875 1.3896
                  CHANNELS 3 Zrotation Xrotation Yrotation
                  JOINT LeftHandThumb2
                  {
                    OFFSET 3.4129 -1.121 2.5732
                    CHANNELS 3 Zrotation Xrotation Yrotation
                    JOINT LeftHandThumb3
                    {
                      OFFSET 2.2474 -0.804199 1.6192
                      CHANNELS 3 Zrotation Xrotation Yrotation
                      End Site
                      {
                        OFFSET 1.6527 -0.5689 1.1317
                      }
                    }
                  }
                }
              }
            }
          }
        }
        JOINT RightShoulder
        {
          OFFSET -2.2086 21.1115 7.2329
          CHANNELS 3 Zrotation Xrotation Yrotation
          JOINT RightArm
          {
            OFFSET -13.1216 3.0287 -4.9007
            CHANNELS 3 Zrotation Xrotation Yrotation
            JOINT RightForeArm
            {
              OFFSET -27.4081 -0.0973053 -0.2375
              CHANNELS 3 Zrotation Xrotation Yrotation
              JOINT RightHand
              {
                OFFSET -22.8641 0.0664063 -0.1369
                CHANNELS 3 Zrotation Xrotation Yrotation
                JOINT RightHandIndex1
                {
                  OFFSET -8.8614 0.774994 2.4612
                  CHANNELS 3 Zrotation Xrotation Yrotation
                  JOINT RightHandIndex2
                  {
                    OFFSET -3.3146 -0.808304 0.5841
                    CHANNELS 3 Zrotation Xrotation Yrotation
                    JOINT RightHandIndex3
                    {
                      OFFSET -2.2628 -0.552002 0.3989
                      CHANNELS 3 Zrotation Xrotation Yrotation
                      End Site
                      {
                        OFFSET -1.6102 -0.4807 0.2612
                      }
                    }
                  }
                }
                JOINT RightHandMiddle1
                {
                  OFFSET -8.9937 0.894989 0.2143
                  CHANNELS 3 Zrotation Xrotation Yrotation
                  JOINT RightHandMiddle2
                  {
                    OFFSET -4.0984 0.0113983 -0.0242
                    CHANNELS 3 Zrotation Xrotation Yrotation
                    JOINT RightHandMiddle3
                    {
                      OFFSET -2.2716 0.00691223 -0.0138001
                      CHANNELS 3 Zrotation Xrotation Yrotation
                      End Site
                      {
                        OFFSET -2.0404 -0.1441 0.0027
                      }
                    }
                  }
                }
                JOINT RightHandRing1
                {
                  OFFSET -8.5234 0.597198 -2.0164
                  CHANNELS 3 Zrotation Xrotation Yrotation
                  JOINT RightHandRing2
                  {
                    OFFSET -3.7188 -0.188309 -0.2328
                    CHANNELS 3 Zrotation Xrotation Yrotation
                    JOINT RightHandRing3
                    {
                      OFFSET -2.1191 -0.106598 -0.1332
                      CHANNELS 3 Zrotation Xrotation Yrotation
                      End Site
                      {
                        OFFSET -1.8737 -0.2304 -0.0886
                      }
                    }
                  }
                }
                JOINT RightHandPinky1
                {
                  OFFSET -7.9094 -0.601105 -3.4825
                  CHANNELS 3 Zrotation Xrotation Yrotation
                  JOINT RightHandPinky2
                  {
                    OFFSET -2.2874 -0.477005 -0.6314
                    CHANNELS 3 Zrotation Xrotation Yrotation
                    JOINT RightHandPinky3
                    {
                      OFFSET -1.6774 -0.349396 -0.4633
                      CHANNELS 3 Zrotation Xrotation Yrotation
                      End Site
                      {
                        OFFSET -1.4888 -0.4091 -0.3416
                      }
                    }
                  }
                }
                JOINT RightHandThumb1
                {
                  OFFSET -1.833 -1.38751 1.3896
                  CHANNELS 3 Zrotation Xrotation Yrotation
                  JOINT RightHandThumb2
                  {
                    OFFSET -3.41299 -1.12099 2.5732
                    CHANNELS 3 Zrotation Xrotation Yrotation
                    JOINT RightHandThumb3
                    {
                      OFFSET -2.24741 -0.804108 1.6192
                      CHANNELS 3 Zrotation Xrotation Yrotation
                      End Site
                      {
                        OFFSET -1.6527 -0.5689 1.1317
                      }
                    }
                  }
                }
              }
            }
          }
        }
      }
    }
  }
  JOINT RightUpLeg
  {
    OFFSET -9.1966 3.8861 -0.7581
    CHANNELS 3 Zrotation Xrotation Yrotation
    JOINT RightLeg
    {
      OFFSET -0.7359 -41.0265 0
      CHANNELS 3 Zrotation Xrotation Yrotation
      JOINT RightFoot
      {
        OFFSET 0 -40.2855 0
        CHANNELS 3 Zrotation Xrotation Yrotation
        JOINT RightToeBase
        {
          OFFSET 0 -5.6122 11.7359
          CHANNELS 3 Zrotation Xrotation Yrotation
          End Site
          {
            OFFSET 0 0 7.8731
          }
        }
      }
    }
  }
  JOINT LeftUpLeg
  {
    OFFSET 9.1965 3.8864 -0.7581
    CHANNELS 3 Zrotation Xrotation Yrotation
    JOINT LeftLeg
    {
      OFFSET 0.7359 -41.0268 0
      CHANNELS 3 Zrotation Xrotation Yrotation
      JOINT LeftFoot
      {
        OFFSET 0 -40.2855 0
        CHANNELS 3 Zrotation Xrotation Yrotation
        JOINT LeftToeBase
        {
          OFFSET 0 -5.6122 11.7359
          CHANNELS 3 Zrotation Xrotation Yrotation
          End Site
          {
            OFFSET 0 0 7.8731
          }
        }
      }
    }
  }
}
MOTION
Frames:	4
Frame Time:	0.0333333
1.56981 45.068 22.9808 0.00370789 85.295 -180 -0.633186 -3.84528 -0.159031 -1.28144 -7.68853 -0.361982 -1.28144 -7.68853 -0.361982 2.10898e-005 30.2643 -1.07904e-005 -1.97865e-007 -32.8468 5.90889e-007 15.3467 10.4752 14.2761 -27.096 18.7358 62.5898 -0.134448 30.4399 0.33044 61.0776 -0.406662 0.260244 6.36111e-015 -3.18055e-015 1.27222e-014 3.18055e-015 1.59028e-015 3.18055e-015 0 0 -0 6.36111e-015 -3.18055e-015 1.27222e-014 -0.0145984 -8.95917e-005 3.27297e-006 -1.59028e-015 3.18055e-015 6.36111e-015 6.36111e-015 -3.18055e-015 1.27222e-014 -0.0187429 -0.00117457 5.55392e-005 -8.64563e-007 4.85793e-007 -1.86495e-006 6.36111e-015 -3.18055e-015 1.27222e-014 -0.0122953 -0.00325735 0.000672405 3.18055e-015 -2.54444e-014 -1.59028e-014 6.36111e-015 -3.18055e-015 1.27222e-014 3.18055e-015 1.59028e-015 3.18055e-015 0 0 -0 -15.9151 10.5414 -15.406 26.7469 19.2993 -61.5295 0.633591 30.4785 -0.330957 -61.4682 -0.27399 -0.0446719 -1.59028e-015 0 -3.18055e-015 -1.59028e-015 0 -0 3.18055e-015 1.59028e-015 -0 -1.59028e-015 0 -3.18055e-015 0.0150084 -9.17304e-005 8.23346e-006 4.77083e-015 3.18055e-015 -3.18055e-015 -1.59028e-015 0 -3.18055e-015 0.0190212 -0.00119152 -5.72565e-005 1.59028e-015 6.36111e-015 6.36111e-015 -1.59028e-015 0 -3.18055e-015 0.0122404 -0.00324117 -0.000681106 6.36111e-015 0 9.54166e-015 -1.59028e-015 0 -3.18055e-015 -1.59028e-015 0 -0 3.18055e-015 1.59028e-015 -0 -46.4161 18.2551 -48.7412 -68.6486 53.8027 68.5666 -5.40181 17.5394 30.2944 1.28801e-006 1.95879e-006 -5.76495e-008 48.6211 18.4809 48.8135 66.3375 53.5837 -66.6899 6.69876 18.7597 -32.8053 -4.14104e-007 -2.93151e-006 -2.2569e-006 
1.57033 45.0789 22.7826 0.00370788 85.5455 -180 -0.632663 -3.73263 -0.156662 -1.27966 -7.46329 -0.355857 -1.27966 -7.46328 -0.355856 -5.57945e-006 30.6905 -2.13925e-006 -5.81877e-007 -32.8725 -5.36917e-007 15.3908 10.4451 14.8247 -26.9803 18.9455 62.1334 -0.0699946 30.4396 0.330413 60.8219 -0.529228 0.234475 4.77083e-015 -1.59028e-015 -6.36111e-015 -1.59028e-015 1.59028e-015 3.18055e-015 -1.59028e-015 1.59028e-015 3.18055e-015 4.77083e-015 -1.59028e-015 -6.36111e-015 -0.0146147 -8.85627e-005 3.68538e-006 -1.59028e-015 0 -3.18055e-015 4.77083e-015 -1.59028e-015 -6.36111e-015 -0.0187806 -0.00117734 6.02468e-005 -3.07878e-007 1.3573e-007 -1.2326e-006 4.77083e-015 -1.59028e-015 -6.36111e-015 -0.0122254 -0.00323589 0.000667451 -3.08713e-007 1.35916e-007 -1.23268e-006 4.77083e-015 -1.59028e-015 -6.36111e-015 -1.59028e-015 1.59028e-015 3.18055e-015 -1.59028e-015 1.59028e-015 3.18055e-015 -15.952 10.517 -16.0569 26.5972 19.5579 -60.9688 0.57303 30.4772 -0.330955 -61.1816 -0.373796 -0.0401715 -3.21833e-007 7.78653e-007 -9.88588e-008 -2.22891e-007 -8.68353e-007 2.23496e-006 -5.55763e-007 5.4652e-007 -2.13864e-006 -3.21833e-007 7.78653e-007 -9.88588e-008 0.0150021 -9.30338e-005 1.3618e-006 -3.2182e-007 7.78641e-007 -9.89605e-008 -3.21833e-007 7.78653e-007 -9.88588e-008 0.0190324 -0.0011938 -5.8304e-005 -3.21818e-007 7.78636e-007 -9.89848e-008 -3.21833e-007 7.78653e-007 -9.88588e-008 0.0122374 -0.00323987 -0.00066822 -3.2183e-007 7.78638e-007 -9.89334e-008 -3.21833e-007 7.78653e-007 -9.88588e-008 -2.22891e-007 -8.68353e-007 2.23496e-006 -5.55763e-007 5.4652e-007 -2.13864e-006 -46.189 18.3502 -48.1071 -68.984 53.7959 68.8465 -4.74043 17.4356 29.8576 5.29669e-031 4.77083e-015 -6.36111e-015 48.4039 18.5394 48.0988 66.5942 53.5639 -66.9082 5.96855 18.7596 -32.3394 -2.56809e-007 -3.16414e-007 1.62393e-006 
1.57085 45.0898 22.5845 0.00370788 85.796 -180 -0.632142 -3.62 -0.1543 -1.27791 -7.23806 -0.349753 -1.27791 -7.23807 -0.349753 4.23436e-006 31.1158 -7.86747e-006 -6.68962e-007 -32.8981 -4.89415e-007 15.4345 10.4178 15.3732 -26.8627 19.1544 61.676 -0.0055538 30.4394 0.330403 60.5662 -0.651683 0.208142 1.59028e-015 -1.59028e-015 -1.27222e-014 -7.96634e-007 2.77113e-007 9.53841e-008 1.59028e-015 -3.18055e-015 -3.18055e-015 1.59028e-015 -1.59028e-015 -1.27222e-014 -0.0145842 -9.06319e-005 4.31157e-006 -1.90833e-014 -1.43125e-014 9.54166e-015 1.59028e-015 -1.59028e-015 -1.27222e-014 -0.0187575 -0.00117535 6.03375e-005 -1.59028e-015 -1.59028e-015 -0 1.59028e-015 -1.59028e-015 -1.27222e-014 -0.012311 -0.00325744 0.000677354 0 0 -6.36111e-015 1.59028e-015 -1.59028e-015 -1.27222e-014 -7.96634e-007 2.77113e-007 9.53841e-008 1.59028e-015 -3.18055e-015 -3.18055e-015 -15.9892 10.493 -16.7076 26.4446 19.8151 -60.4067 0.512487 30.4762 -0.33096 -60.8949 -0.473577 -0.0351728 -1.62787e-007 -1.83125e-007 -1.06667e-006 -3.18055e-015 -1.59028e-015 -6.36111e-015 1.62787e-007 1.83125e-007 1.06667e-006 -1.62787e-007 -1.83125e-007 -1.06667e-006 0.0150197 -8.87966e-005 5.52337e-006 -4.77083e-015 -6.36111e-015 3.18055e-015 -1.62787e-007 -1.83125e-007 -1.06667e-006 0.0189987 -0.00119311 -6.35332e-005 1.59028e-015 -1.59028e-015 3.18055e-015 -1.62787e-007 -1.83125e-007 -1.06667e-006 0.0122658 -0.00324799 -0.000677079 1.59028e-015 0 -9.54166e-015 -1.62787e-007 -1.83125e-007 -1.06667e-006 -3.18055e-015 -1.59028e-015 -6.36111e-015 1.62787e-007 1.83125e-007 1.06667e-006 -45.9629 18.4477 -47.4733 -69.3193 53.7882 69.1261 -4.08049 17.3268 29.4222 1.62336e-006 3.35627e-007 2.59564e-007 48.1873 18.6006 47.3844 66.8508 53.5436 -67.1263 5.23859 18.7536 -31.8736 2.63213e-006 -1.68017e-006 5.38678e-007 
1.57138 45.1006 22.3866 0.00370789 86.0465 180 -0.631631 -3.50739 -0.151943 -1.27619 -7.01285 -0.343667 -1.27619 -7.01287 -0.343668 2.23777e-005 31.5407 -1.7445e-005 9.53431e-007 -32.9238 8.0353e-007 15.4788 10.3901 15.9217 -26.7431 19.3622 61.2176 0.0588952 30.4394 0.330383 60.3104 -0.774008 0.181268 7.95139e-015 1.59028e-015 3.18055e-015 3.18055e-015 0 -0 3.18055e-015 3.18055e-015 -6.36111e-015 7.95139e-015 1.59028e-015 3.18055e-015 -0.0145887 -8.86132e-005 -1.64083e-006 3.18055e-015 4.77083e-015 3.18055e-015 7.95139e-015 1.59028e-015 3.18055e-015 -0.0187342 -0.00117333 6.1911e-005 -7.95139e-015 -7.95139e-015 6.36111e-015 7.95139e-015 1.59028e-015 3.18055e-015 -0.012282 -0.00325078 0.000680809 -5.29669e-031 3.18055e-015 9.54166e-015 7.95139e-015 1.59028e-015 3.18055e-015 3.18055e-015 0 -0 3.18055e-015 3.18055e-015 -6.36111e-015 -16.0266 10.4695 -17.3581 26.2891 20.0708 -59.8429 0.451949 30.4753 -0.330941 -60.6083 -0.573324 -0.0296714 4.77083e-015 0 -3.18055e-015 3.18055e-015 0 6.36111e-015 4.77083e-015 0 -0 4.77083e-015 0 -3.18055e-015 0.0149964 -9.04524e-005 -3.7488e-007 2.64834e-031 4.77083e-015 -3.18055e-015 4.77083e-015 0 -3.18055e-015 0.0189455 -0.00118551 -5.39456e-005 1.59028e-015 -4.77083e-015 -3.18055e-015 4.77083e-015 0 -3.18055e-015 0.0123184 -0.0032605 -0.000673825 -3.18055e-015 3.18055e-015 -1.27222e-014 4.77083e-015 0 -3.18055e-015 3.18055e-015 0 6.36111e-015 4.77083e-015 0 -0 -45.7378 18.5477 -46.8399 -69.6545 53.7797 69.4056 -3.42215 17.2131 28.9884 -4.27452e-006 -2.94754e-006 -2.08551e-006 47.9714 18.6643 46.6703 67.1073 53.5227 -67.3443 4.50893 18.7418 -31.4078 3.18055e-015 0 -3.18055e-015 
